<?xml version="1.0" encoding="UTF-8" standalone="no"?>
<!-- Created with Digital by H.Neemann -->
<!-- created: Tue May 26 21:52:03 GMT+03:00 2026 -->

<svg
   xmlns:svg="http://www.w3.org/2000/svg"
   xmlns="http://www.w3.org/2000/svg"
   width="352.2mm"
   height="154.2mm"
   viewBox="236 -1162 2348 1028">
<g stroke-linecap="square">
<path d="M 1260,-1040 L 1260,-900 L 1460,-900 L 1460,-440 L 1540,-440" stroke="#0000b2" stroke-width="4.0" fill="none"/>
<path d="M 1200,-520 L 1220,-520" stroke="#0000b2" stroke-width="4.0" fill="none"/>
<path d="M 1260,-200 L 1520,-200 L 1520,-320 L 1540,-320" stroke="#0000b2" stroke-width="4.0" fill="none"/>
<path d="M 1120,-620 L 1120,-460 L 1240,-460 L 1240,-480" stroke="#0000b2" stroke-width="4.0" fill="none"/>
<path d="M 1940,-400 L 1980,-400 L 1980,-380 L 2000,-380" stroke="#0000b2" stroke-width="4.0" fill="none"/>
<path d="M 1260,-400 L 1300,-400 L 1300,-360 L 1540,-360" stroke="#0000b2" stroke-width="4.0" fill="none"/>
<path d="M 2240,-400 L 2380,-400" stroke="#0000b2" stroke-width="4.0" fill="none"/>
<path d="M 600,-660 L 760,-660" stroke="#0000b2" stroke-width="4.0" fill="none"/>
<path d="M 1080,-340 L 1160,-340 L 1160,-280 L 1220,-280" stroke="#0000b2" stroke-width="4.0" fill="none"/>
<path d="M 600,-600 L 660,-600 L 660,-580 L 760,-580" stroke="#0000b2" stroke-width="4.0" fill="none"/>
<path d="M 1200,-220 L 1220,-220" stroke="#0000b2" stroke-width="4.0" fill="none"/>
<path d="M 1940,-420 L 2000,-420" stroke="#0000b2" stroke-width="4.0" fill="none"/>
<path d="M 1200,-420 L 1220,-420" stroke="#0000b2" stroke-width="4.0" fill="none"/>
<path d="M 1080,-360 L 1180,-360 L 1180,-380 L 1220,-380" stroke="#0000b2" stroke-width="4.0" fill="none"/>
<path d="M 1240,-380 L 1240,-360 L 1280,-360 L 1280,-140 L 1240,-140 L 1120,-140 L 1120,-260 L 1240,-260 L 1240,-280" stroke="#0000b2" stroke-width="4.0" fill="none"/>
<path d="M 600,-680 L 680,-680 L 680,-560 L 760,-560" stroke="#0000b2" stroke-width="4.0" fill="none"/>
<path d="M 740,-860 L 740,-680 L 760,-680" stroke="#0000b2" stroke-width="4.0" fill="none"/>
<path d="M 1680,-1000 L 1800,-1000 L 1800,-980 L 1820,-980" stroke="#0000b2" stroke-width="4.0" fill="none"/>
<path d="M 1880,-1000 L 1900,-1000 L 1900,-940 L 1480,-940 L 1480,-420 L 1540,-420" stroke="#0000b2" stroke-width="4.0" fill="none"/>
<path d="M 600,-620 L 720,-620 L 720,-600 L 760,-600" stroke="#0000b2" stroke-width="4.0" fill="none"/>
<path d="M 1080,-620 L 1120,-620 L 1500,-620 L 1500,-400 L 1540,-400" stroke="#0000b2" stroke-width="4.0" fill="none"/>
<path d="M 1260,-300 L 1300,-300 L 1300,-340 L 1540,-340" stroke="#0000b2" stroke-width="4.0" fill="none"/>
<path d="M 1080,-1040 L 1080,-880 L 1440,-880 L 1440,-300 L 1540,-300" stroke="#0000b2" stroke-width="4.0" fill="none"/>
<path d="M 1260,-500 L 1520,-500 L 1520,-380 L 1540,-380" stroke="#0000b2" stroke-width="4.0" fill="none"/>
<path d="M 1940,-440 L 2000,-440" stroke="#0000b2" stroke-width="4.0" fill="none"/>
<path d="M 1940,-380 L 1960,-380 L 1960,-360 L 2000,-360" stroke="#0000b2" stroke-width="4.0" fill="none"/>
<path d="M 1080,-380 L 1160,-380 L 1160,-480 L 1220,-480" stroke="#0000b2" stroke-width="4.0" fill="none"/>
<path d="M 740,-680 L 740,-380 L 760,-380" stroke="#0000b2" stroke-width="4.0" fill="none"/>
<path d="M 1600,-1080 L 1600,-1020 L 1660,-1020" stroke="#0000b2" stroke-width="4.0" fill="none"/>
<path d="M 1800,-1020 L 1820,-1020" stroke="#0000b2" stroke-width="4.0" fill="none"/>
<path d="M 1680,-1020 L 1760,-1020" stroke="#0000b2" stroke-width="4.0" fill="none"/>
<path d="M 600,-640 L 760,-640" stroke="#0000b2" stroke-width="4.0" fill="none"/>
<path d="M 1200,-320 L 1220,-320" stroke="#0000b2" stroke-width="4.0" fill="none"/>
<path d="M 1080,-320 L 1140,-320 L 1140,-180 L 1220,-180" stroke="#0000b2" stroke-width="4.0" fill="none"/>
<path d="M 1120,-460 L 1120,-260" stroke="#0000b2" stroke-width="4.0" fill="none"/>
<path d="M 1240,-180 L 1240,-140" stroke="#0000b2" stroke-width="4.0" fill="none"/>
<path d="M 1660,-1020 L 1670,-1020 L 1680,-1020" stroke="#000000" stroke-width="4.0" fill="none"/>
<path d="M 1680,-1000 L 1670,-1000" stroke="#000000" stroke-width="4.0" fill="none"/>
<g>
<circle cx="1120.0" cy="-260.0" r="4.0" stroke="#0000b2" stroke-width="4.0" fill="#0000b2" />
<circle cx="1240.0" cy="-140.0" r="4.0" stroke="#0000b2" stroke-width="4.0" fill="#0000b2" />
<circle cx="1120.0" cy="-460.0" r="4.0" stroke="#0000b2" stroke-width="4.0" fill="#0000b2" />
<circle cx="740.0" cy="-680.0" r="4.0" stroke="#0000b2" stroke-width="4.0" fill="#0000b2" />
<circle cx="1120.0" cy="-620.0" r="4.0" stroke="#0000b2" stroke-width="4.0" fill="#0000b2" />
</g>
<g>
<path d="M 761,-394 L 1079,-394 L 1079,-306 L 761,-306 Z" stroke="#3300cc" stroke-width="0.0" fill="#3300cc" fill-opacity="1.0"/>
<path d="M 761,-394 L 1079,-394 L 1079,-306 L 761,-306 Z" stroke="#000000" stroke-width="4.0" fill="none"/>
<text text-anchor="start" x="764.0" y="-373.25" fill="#808080" style="font-size:18px">loop-cnt-addr</text>
<text text-anchor="end" x="1076.0" y="-373.25" fill="#808080" style="font-size:18px">class0-weight</text>
<text text-anchor="end" x="1076.0" y="-353.25" fill="#808080" style="font-size:18px">class1-weight</text>
<text text-anchor="end" x="1076.0" y="-333.25" fill="#808080" style="font-size:18px">class2-weight</text>
<text text-anchor="end" x="1076.0" y="-313.25" fill="#808080" style="font-size:18px">class3-weight</text>
<text text-anchor="middle" x="920.0" y="-288.5" fill="#808080" style="font-size:18px">full-weight-ROM</text>
<circle cx="760.0" cy="-380.0" r="2.0" stroke="#0000b2" stroke-width="4.0" fill="#0000b2" />
<circle cx="1080.0" cy="-380.0" r="2.0" stroke="#b20000" stroke-width="4.0" fill="#b20000" />
<circle cx="1080.0" cy="-360.0" r="2.0" stroke="#b20000" stroke-width="4.0" fill="#b20000" />
<circle cx="1080.0" cy="-340.0" r="2.0" stroke="#b20000" stroke-width="4.0" fill="#b20000" />
<circle cx="1080.0" cy="-320.0" r="2.0" stroke="#b20000" stroke-width="4.0" fill="#b20000" />
</g>
<g>
<path d="M 1541,-454 L 1939,-454 L 1939,-286 L 1541,-286 Z" stroke="#ff6666" stroke-width="0.0" fill="#ff6666" fill-opacity="1.0"/>
<path d="M 1541,-454 L 1939,-454 L 1939,-286 L 1541,-286 Z" stroke="#000000" stroke-width="4.0" fill="none"/>
<path d="M 1541,-433 L 1548,-440 L 1541,-447" stroke="#000000" stroke-width="2.0" fill="none"/>
<text text-anchor="start" x="1551.0" y="-433.25" fill="#808080" style="font-size:18px">glbl-loop-clk</text>
<text text-anchor="start" x="1544.0" y="-413.25" fill="#808080" style="font-size:18px">glbl-inference-state</text>
<text text-anchor="start" x="1544.0" y="-393.25" fill="#808080" style="font-size:18px">enable-bit</text>
<text text-anchor="start" x="1544.0" y="-373.25" fill="#808080" style="font-size:18px">WEIGHT-0</text>
<text text-anchor="start" x="1544.0" y="-353.25" fill="#808080" style="font-size:18px">WEIGHT-1</text>
<text text-anchor="start" x="1544.0" y="-333.25" fill="#808080" style="font-size:18px">WEIGHT-2</text>
<text text-anchor="start" x="1544.0" y="-313.25" fill="#808080" style="font-size:18px">WEIGHT-3</text>
<text text-anchor="start" x="1544.0" y="-293.25" fill="#808080" style="font-size:18px">glbl-reset</text>
<text text-anchor="end" x="1936.0" y="-433.25" fill="#808080" style="font-size:18px">accum-class-score-0</text>
<text text-anchor="end" x="1936.0" y="-413.25" fill="#808080" style="font-size:18px">accum-class-score-1</text>
<text text-anchor="end" x="1936.0" y="-393.25" fill="#808080" style="font-size:18px">accum-class-score-2</text>
<text text-anchor="end" x="1936.0" y="-373.25" fill="#808080" style="font-size:18px">accum-class-score-3</text>
<text text-anchor="middle" x="1740.0" y="-268.5" fill="#808080" style="font-size:18px">4-channel-IAE</text>
<circle cx="1540.0" cy="-440.0" r="2.0" stroke="#0000b2" stroke-width="4.0" fill="#0000b2" />
<circle cx="1540.0" cy="-420.0" r="2.0" stroke="#0000b2" stroke-width="4.0" fill="#0000b2" />
<circle cx="1540.0" cy="-400.0" r="2.0" stroke="#0000b2" stroke-width="4.0" fill="#0000b2" />
<circle cx="1540.0" cy="-380.0" r="2.0" stroke="#0000b2" stroke-width="4.0" fill="#0000b2" />
<circle cx="1540.0" cy="-360.0" r="2.0" stroke="#0000b2" stroke-width="4.0" fill="#0000b2" />
<circle cx="1540.0" cy="-340.0" r="2.0" stroke="#0000b2" stroke-width="4.0" fill="#0000b2" />
<circle cx="1540.0" cy="-320.0" r="2.0" stroke="#0000b2" stroke-width="4.0" fill="#0000b2" />
<circle cx="1540.0" cy="-300.0" r="2.0" stroke="#0000b2" stroke-width="4.0" fill="#0000b2" />
<circle cx="1940.0" cy="-440.0" r="2.0" stroke="#b20000" stroke-width="4.0" fill="#b20000" />
<circle cx="1940.0" cy="-420.0" r="2.0" stroke="#b20000" stroke-width="4.0" fill="#b20000" />
<circle cx="1940.0" cy="-400.0" r="2.0" stroke="#b20000" stroke-width="4.0" fill="#b20000" />
<circle cx="1940.0" cy="-380.0" r="2.0" stroke="#b20000" stroke-width="4.0" fill="#b20000" />
</g>
<g>
<path d="M 2001,-454 L 2239,-454 L 2239,-346 L 2001,-346 Z" stroke="#99ccff" stroke-width="0.0" fill="#99ccff" fill-opacity="1.0"/>
<path d="M 2001,-454 L 2239,-454 L 2239,-346 L 2001,-346 Z" stroke="#000000" stroke-width="4.0" fill="none"/>
<text text-anchor="start" x="2004.0" y="-433.25" fill="#808080" style="font-size:18px">accum-class-score-0</text>
<text text-anchor="start" x="2004.0" y="-413.25" fill="#808080" style="font-size:18px">accum-class-score-1</text>
<text text-anchor="start" x="2004.0" y="-373.25" fill="#808080" style="font-size:18px">accum-class-score-2</text>
<text text-anchor="start" x="2004.0" y="-353.25" fill="#808080" style="font-size:18px">accum-class-score-3</text>
<text text-anchor="end" x="2236.0" y="-393.25" fill="#808080" style="font-size:18px">fwin</text>
<text text-anchor="middle" x="2120.0" y="-328.5" fill="#808080" style="font-size:18px">4-argmax-tree</text>
<circle cx="2000.0" cy="-440.0" r="2.0" stroke="#0000b2" stroke-width="4.0" fill="#0000b2" />
<circle cx="2000.0" cy="-420.0" r="2.0" stroke="#0000b2" stroke-width="4.0" fill="#0000b2" />
<circle cx="2000.0" cy="-380.0" r="2.0" stroke="#0000b2" stroke-width="4.0" fill="#0000b2" />
<circle cx="2000.0" cy="-360.0" r="2.0" stroke="#0000b2" stroke-width="4.0" fill="#0000b2" />
<circle cx="2240.0" cy="-400.0" r="2.0" stroke="#b20000" stroke-width="4.0" fill="#b20000" />
</g>
<g>
<path d="M 2381,-434 L 2579,-434 L 2579,-286 L 2381,-286 Z" stroke="#33ff33" stroke-width="0.0" fill="#33ff33" fill-opacity="1.0"/>
<path d="M 2381,-434 L 2579,-434 L 2579,-286 L 2381,-286 Z" stroke="#000000" stroke-width="4.0" fill="none"/>
<text text-anchor="start" x="2384.0" y="-413.25" fill="#808080" style="font-size:18px">glbl-boot</text>
<text text-anchor="start" x="2384.0" y="-393.25" fill="#808080" style="font-size:18px">w-id</text>
<text text-anchor="start" x="2384.0" y="-373.25" fill="#808080" style="font-size:18px">argmax-fin</text>
<path d="M 2381,-333 L 2388,-340 L 2381,-347" stroke="#000000" stroke-width="2.0" fill="none"/>
<text text-anchor="start" x="2391.0" y="-333.25" fill="#808080" style="font-size:18px">lfsr-clk</text>
<text text-anchor="start" x="2384.0" y="-313.25" fill="#808080" style="font-size:18px">print-enable</text>
<path d="M 2381,-293 L 2388,-300 L 2381,-307" stroke="#000000" stroke-width="2.0" fill="none"/>
<text text-anchor="start" x="2391.0" y="-293.25" fill="#808080" style="font-size:18px">stream-clk</text>
<text text-anchor="end" x="2576.0" y="-353.25" fill="#808080" style="font-size:18px">char-stream</text>
<text text-anchor="middle" x="2480.0" y="-268.5" fill="#808080" style="font-size:18px">output-gen</text>
<circle cx="2380.0" cy="-420.0" r="2.0" stroke="#0000b2" stroke-width="4.0" fill="#0000b2" />
<circle cx="2380.0" cy="-400.0" r="2.0" stroke="#0000b2" stroke-width="4.0" fill="#0000b2" />
<circle cx="2380.0" cy="-380.0" r="2.0" stroke="#0000b2" stroke-width="4.0" fill="#0000b2" />
<circle cx="2380.0" cy="-340.0" r="2.0" stroke="#0000b2" stroke-width="4.0" fill="#0000b2" />
<circle cx="2380.0" cy="-320.0" r="2.0" stroke="#0000b2" stroke-width="4.0" fill="#0000b2" />
<circle cx="2380.0" cy="-300.0" r="2.0" stroke="#0000b2" stroke-width="4.0" fill="#0000b2" />
<circle cx="2580.0" cy="-360.0" r="2.0" stroke="#b20000" stroke-width="4.0" fill="#b20000" />
</g>
<g>
<path d="M 241,-694 L 599,-694 L 599,-566 L 241,-566 Z" stroke="#edffa2" stroke-width="0.0" fill="#edffa2" fill-opacity="1.0"/>
<path d="M 241,-694 L 599,-694 L 599,-566 L 241,-566 Z" stroke="#000000" stroke-width="4.0" fill="none"/>
<text text-anchor="start" x="244.0" y="-673.25" fill="#808080" style="font-size:18px">word-slot-addr</text>
<text text-anchor="start" x="244.0" y="-653.25" fill="#808080" style="font-size:18px">word-flush</text>
<text text-anchor="start" x="244.0" y="-633.25" fill="#808080" style="font-size:18px">punct-q</text>
<text text-anchor="start" x="244.0" y="-613.25" fill="#808080" style="font-size:18px">punct-excl</text>
<text text-anchor="start" x="244.0" y="-593.25" fill="#808080" style="font-size:18px">punct-long</text>
<text text-anchor="start" x="244.0" y="-573.25" fill="#808080" style="font-size:18px">master-sent-rst</text>
<text text-anchor="end" x="596.0" y="-673.25" fill="#808080" style="font-size:18px">punct-presence</text>
<text text-anchor="end" x="596.0" y="-653.25" fill="#808080" style="font-size:18px">word-presence-0-63</text>
<text text-anchor="end" x="596.0" y="-633.25" fill="#808080" style="font-size:18px">word-presence-64-127</text>
<text text-anchor="end" x="596.0" y="-613.25" fill="#808080" style="font-size:18px">word-presence-128-191</text>
<text text-anchor="end" x="596.0" y="-593.25" fill="#808080" style="font-size:18px">word-presence-192-255</text>
<text text-anchor="middle" x="420.0" y="-548.5" fill="#808080" style="font-size:18px">token-presence</text>
<circle cx="240.0" cy="-680.0" r="2.0" stroke="#0000b2" stroke-width="4.0" fill="#0000b2" />
<circle cx="240.0" cy="-660.0" r="2.0" stroke="#0000b2" stroke-width="4.0" fill="#0000b2" />
<circle cx="240.0" cy="-640.0" r="2.0" stroke="#0000b2" stroke-width="4.0" fill="#0000b2" />
<circle cx="240.0" cy="-620.0" r="2.0" stroke="#0000b2" stroke-width="4.0" fill="#0000b2" />
<circle cx="240.0" cy="-600.0" r="2.0" stroke="#0000b2" stroke-width="4.0" fill="#0000b2" />
<circle cx="240.0" cy="-580.0" r="2.0" stroke="#0000b2" stroke-width="4.0" fill="#0000b2" />
<circle cx="600.0" cy="-680.0" r="2.0" stroke="#b20000" stroke-width="4.0" fill="#b20000" />
<circle cx="600.0" cy="-660.0" r="2.0" stroke="#b20000" stroke-width="4.0" fill="#b20000" />
<circle cx="600.0" cy="-640.0" r="2.0" stroke="#b20000" stroke-width="4.0" fill="#b20000" />
<circle cx="600.0" cy="-620.0" r="2.0" stroke="#b20000" stroke-width="4.0" fill="#b20000" />
<circle cx="600.0" cy="-600.0" r="2.0" stroke="#b20000" stroke-width="4.0" fill="#b20000" />
</g>
<g>
<path d="M 761,-694 L 1079,-694 L 1079,-546 L 761,-546 Z" stroke="#cccccc" stroke-width="0.0" fill="#cccccc" fill-opacity="1.0"/>
<path d="M 761,-694 L 1079,-694 L 1079,-546 L 761,-546 Z" stroke="#000000" stroke-width="4.0" fill="none"/>
<text text-anchor="start" x="764.0" y="-673.25" fill="#808080" style="font-size:18px">loop-cnt-addr</text>
<text text-anchor="start" x="764.0" y="-653.25" fill="#808080" style="font-size:18px">word-pres-0-63</text>
<text text-anchor="start" x="764.0" y="-633.25" fill="#808080" style="font-size:18px">word-pres-64-127</text>
<text text-anchor="start" x="764.0" y="-593.25" fill="#808080" style="font-size:18px">word-pres-128-191</text>
<text text-anchor="start" x="764.0" y="-573.25" fill="#808080" style="font-size:18px">word-pres-192-255</text>
<text text-anchor="start" x="764.0" y="-553.25" fill="#808080" style="font-size:18px">punct-pres</text>
<text text-anchor="end" x="1076.0" y="-613.25" fill="#808080" style="font-size:18px">feat-present</text>
<text text-anchor="middle" x="920.0" y="-528.5" fill="#808080" style="font-size:18px">presence-bit-sel</text>
<circle cx="760.0" cy="-680.0" r="2.0" stroke="#0000b2" stroke-width="4.0" fill="#0000b2" />
<circle cx="760.0" cy="-660.0" r="2.0" stroke="#0000b2" stroke-width="4.0" fill="#0000b2" />
<circle cx="760.0" cy="-640.0" r="2.0" stroke="#0000b2" stroke-width="4.0" fill="#0000b2" />
<circle cx="760.0" cy="-600.0" r="2.0" stroke="#0000b2" stroke-width="4.0" fill="#0000b2" />
<circle cx="760.0" cy="-580.0" r="2.0" stroke="#0000b2" stroke-width="4.0" fill="#0000b2" />
<circle cx="760.0" cy="-560.0" r="2.0" stroke="#0000b2" stroke-width="4.0" fill="#0000b2" />
<circle cx="1080.0" cy="-620.0" r="2.0" stroke="#b20000" stroke-width="4.0" fill="#b20000" />
</g>
<g>
<path d="M 1221,-524 L 1259,-515 L 1259,-485 L 1221,-476 Z" stroke="#000000" stroke-width="4.0" fill="none"/>
<text text-anchor="start" x="1223.0" y="-504.5" fill="#808080" style="font-size:18px">0</text>
<circle cx="1240.0" cy="-480.0" r="2.0" stroke="#0000b2" stroke-width="4.0" fill="#0000b2" />
<circle cx="1220.0" cy="-520.0" r="2.0" stroke="#0000b2" stroke-width="4.0" fill="#0000b2" />
<circle cx="1220.0" cy="-480.0" r="2.0" stroke="#0000b2" stroke-width="4.0" fill="#0000b2" />
<circle cx="1260.0" cy="-500.0" r="2.0" stroke="#b20000" stroke-width="4.0" fill="#b20000" />
</g>
<g>
<path d="M 1221,-424 L 1259,-415 L 1259,-385 L 1221,-376 Z" stroke="#000000" stroke-width="4.0" fill="none"/>
<text text-anchor="start" x="1223.0" y="-404.5" fill="#808080" style="font-size:18px">0</text>
<circle cx="1240.0" cy="-380.0" r="2.0" stroke="#0000b2" stroke-width="4.0" fill="#0000b2" />
<circle cx="1220.0" cy="-420.0" r="2.0" stroke="#0000b2" stroke-width="4.0" fill="#0000b2" />
<circle cx="1220.0" cy="-380.0" r="2.0" stroke="#0000b2" stroke-width="4.0" fill="#0000b2" />
<circle cx="1260.0" cy="-400.0" r="2.0" stroke="#b20000" stroke-width="4.0" fill="#b20000" />
</g>
<g>
<path d="M 1221,-324 L 1259,-315 L 1259,-285 L 1221,-276 Z" stroke="#000000" stroke-width="4.0" fill="none"/>
<text text-anchor="start" x="1223.0" y="-304.5" fill="#808080" style="font-size:18px">0</text>
<circle cx="1240.0" cy="-280.0" r="2.0" stroke="#0000b2" stroke-width="4.0" fill="#0000b2" />
<circle cx="1220.0" cy="-320.0" r="2.0" stroke="#0000b2" stroke-width="4.0" fill="#0000b2" />
<circle cx="1220.0" cy="-280.0" r="2.0" stroke="#0000b2" stroke-width="4.0" fill="#0000b2" />
<circle cx="1260.0" cy="-300.0" r="2.0" stroke="#b20000" stroke-width="4.0" fill="#b20000" />
</g>
<g>
<path d="M 1221,-224 L 1259,-215 L 1259,-185 L 1221,-176 Z" stroke="#000000" stroke-width="4.0" fill="none"/>
<text text-anchor="start" x="1223.0" y="-204.5" fill="#808080" style="font-size:18px">0</text>
<circle cx="1240.0" cy="-180.0" r="2.0" stroke="#0000b2" stroke-width="4.0" fill="#0000b2" />
<circle cx="1220.0" cy="-220.0" r="2.0" stroke="#0000b2" stroke-width="4.0" fill="#0000b2" />
<circle cx="1220.0" cy="-180.0" r="2.0" stroke="#0000b2" stroke-width="4.0" fill="#0000b2" />
<circle cx="1260.0" cy="-200.0" r="2.0" stroke="#b20000" stroke-width="4.0" fill="#b20000" />
</g>
<g>
<text text-anchor="end" x="1197.0" y="-511.0" fill="#000000" style="font-size:24px">0</text>
<circle cx="1200.0" cy="-520.0" r="2.0" stroke="#b20000" stroke-width="4.0" fill="#b20000" />
</g>
<g>
<text text-anchor="end" x="1197.0" y="-411.0" fill="#000000" style="font-size:24px">0</text>
<circle cx="1200.0" cy="-420.0" r="2.0" stroke="#b20000" stroke-width="4.0" fill="#b20000" />
</g>
<g>
<text text-anchor="end" x="1197.0" y="-311.0" fill="#000000" style="font-size:24px">0</text>
<circle cx="1200.0" cy="-320.0" r="2.0" stroke="#b20000" stroke-width="4.0" fill="#b20000" />
</g>
<g>
<text text-anchor="end" x="1197.0" y="-211.0" fill="#000000" style="font-size:24px">0</text>
<circle cx="1200.0" cy="-220.0" r="2.0" stroke="#b20000" stroke-width="4.0" fill="#b20000" />
</g>
<g>
<text text-anchor="start" x="1260.0" y="-525.0" fill="#000000" style="font-size:20px">class0 (inform)</text>
</g>
<g>
<text text-anchor="start" x="1260.0" y="-425.0" fill="#000000" style="font-size:20px">class1 (question)</text>
</g>
<g>
<text text-anchor="start" x="1260.0" y="-265.0" fill="#000000" style="font-size:20px">class2 (directive)</text>
</g>
<g>
<text text-anchor="start" x="1260.0" y="-165.0" fill="#000000" style="font-size:20px">class3 (commissive)</text>
</g>
<g>
<text text-anchor="start" x="580.0" y="-865.0" fill="#000000" style="font-size:20px">9bit loop-cnt-addr goes here</text>
</g>
<g>
<text text-anchor="start" x="1040.0" y="-1045.0" fill="#000000" style="font-size:20px">glbl-reset</text>
</g>
<g>
<text text-anchor="start" x="1220.0" y="-1045.0" fill="#000000" style="font-size:20px">loop-clk</text>
</g>
<g>
<text text-anchor="start" x="1400.0" y="-1145.0" fill="#000000" style="font-size:20px">glbl-state (2 bits)</text>
<text text-anchor="start" x="1400.0" y="-1120.0" fill="#000000" style="font-size:20px">4 states: Reset(0), Accumulate/Inference(1),</text>
<text text-anchor="start" x="1400.0" y="-1095.0" fill="#000000" style="font-size:20px">Argmax(2), Print(3)</text>
<text text-anchor="start" x="1400.0" y="-1070.0" fill="#000000" style="font-size:20px">(may change)</text>
</g>
<g>
<text text-anchor="end" x="1658.0" y="-1023.0" fill="#808080" style="font-size:12px">0,1</text>
<text text-anchor="start" x="1682.0" y="-1023.0" fill="#808080" style="font-size:12px">0</text>
<text text-anchor="start" x="1682.0" y="-1003.0" fill="#808080" style="font-size:12px">1</text>
<path d="M 1668,-1022 L 1672,-1022 L 1672,-998 L 1668,-998 Z" stroke="#000000" stroke-width="4.0" fill="#000000" fill-opacity="1.0"/>
<circle cx="1660.0" cy="-1020.0" r="2.0" stroke="#0000b2" stroke-width="4.0" fill="#0000b2" />
<circle cx="1680.0" cy="-1020.0" r="2.0" stroke="#b20000" stroke-width="4.0" fill="#b20000" />
<circle cx="1680.0" cy="-1000.0" r="2.0" stroke="#b20000" stroke-width="4.0" fill="#b20000" />
</g>
<g>
<path d="M 1850,-970 L 1821,-970 L 1821,-1030 L 1850,-1030 C 1860,-1030 1880,-1020 1879,-1000 C 1879,-980 1860,-970 1850,-970 Z" stroke="#000000" stroke-width="4.0" fill="none"/>
<circle cx="1820.0" cy="-1020.0" r="2.0" stroke="#0000b2" stroke-width="4.0" fill="#0000b2" />
<circle cx="1820.0" cy="-980.0" r="2.0" stroke="#0000b2" stroke-width="4.0" fill="#0000b2" />
<circle cx="1880.0" cy="-1000.0" r="2.0" stroke="#b20000" stroke-width="4.0" fill="#b20000" />
</g>
<g>
<path d="M 1761,-1032 L 1779,-1020 L 1761,-1008 Z" stroke="#000000" stroke-width="4.0" fill="none"/>
<circle cx="1790.0" cy="-1020.0" r="9.0" stroke="#000000" stroke-width="4.0" fill="none" />
<circle cx="1760.0" cy="-1020.0" r="2.0" stroke="#0000b2" stroke-width="4.0" fill="#0000b2" />
<circle cx="1800.0" cy="-1020.0" r="2.0" stroke="#b20000" stroke-width="4.0" fill="#b20000" />
</g>
</g>
</svg>